<?xml version="1.0" encoding="utf-8"?>
<!-- Generator: Adobe Illustrator 25.4.1, SVG Export Plug-In . SVG Version: 6.00 Build 0)  -->
<svg version="1.1" id="Layer_1" xmlns="http://www.w3.org/2000/svg" xmlns:xlink="http://www.w3.org/1999/xlink" x="0px" y="0px"
	 viewBox="0 0 460 453" style="enable-background:new 0 0 460 453;" xml:space="preserve">
<style type="text/css">
	.st0{fill:#404040;}
</style>
<g>
	<g id="_x39_LynQK.tif">
		<g>
			<path class="st0" d="M240.08,38c7.22,0,14.43,0,21.65,0c3.17,0.47,6.33,0.94,9.5,1.4c52.8,7.61,93.18,34.41,119.52,80.52
				c27.09,47.42,28.21,96.87,6.52,146.87c-1.13,2.6-1.29,4.77-0.37,7.42c6.87,19.7,13.77,39.39,20.28,59.2
				c1.39,4.24,2.23,9.14,1.59,13.47c-2.42,16.23-17.88,24.84-34.02,19.37c-19.64-6.66-39.25-13.39-58.82-20.25
				c-3.04-1.07-5.51-1.06-8.46,0.31c-18.7,8.67-38.4,13.44-59.01,14.26c-2.62,0.1-4.27,1.06-5.86,3.11
				c-9.54,12.35-21.03,22.57-34.72,30.09c-33.33,18.32-67.78,20.25-103.06,6.19c-3.8-1.51-7.03-1.8-10.93-0.38
				c-12.36,4.52-24.88,8.59-37.3,12.96c-7.42,2.61-14.36,2.21-20.92-2.39c-4.62-3.24-6.89-7.98-8.68-13.06c0-2.49,0-4.98,0-7.47
				c5.29-15.37,10.62-30.74,15.8-46.15c0.41-1.22,0.08-2.94-0.47-4.18c-4.81-10.88-8.15-22.22-9.3-34.02
				c-4.2-43.12,10.62-78.49,43.87-106.24c1.21-1.01,2.06-2.95,2.29-4.57c1.42-10.2,1.5-20.72,4.06-30.61
				c16.87-65.23,58.16-106.15,123.71-122.21C224.52,39.83,232.37,39.2,240.08,38z M248.58,60.85c-3.23,0.23-8.95,0.45-14.62,1.08
				c-21.91,2.41-42.16,9.73-60.24,22.19c-33.48,23.07-54.04,54.63-60.17,95.1c-3.47,22.92-1.2,45.34,6.73,67.16
				c8.34,22.93,21.83,42.3,40.32,58.17c21.85,18.76,47.17,29.74,75.76,32.8c27.01,2.89,52.74-1.96,76.98-14.25
				c4.56-2.31,8.83-2.47,13.6-0.8c20.74,7.26,41.55,14.33,62.34,21.47c1.17,0.4,2.34,0.86,3.54,1.15c2.9,0.7,3.96-0.39,3.24-3.35
				c-0.26-1.08-0.71-2.12-1.08-3.17c-7.23-21.02-14.4-42.05-21.71-63.04c-1.53-4.38-1.45-8.42,0.69-12.57
				c8.65-16.78,13.65-34.61,14.92-53.45c1.85-27.26-3.82-52.89-17.07-76.75c-12.47-22.46-29.91-40.21-52.14-53.11
				C298.5,67.17,275.59,61.02,248.58,60.85z M60.86,390.43c14.02-4.82,27.37-9.11,40.48-14.04c6.55-2.47,12.24-2.26,18.49,0.94
				c12.72,6.51,26.54,9.13,40.73,9.04c18.17-0.12,35.11-5.04,50.37-15.03c5.27-3.45,10.09-7.6,15.33-11.59
				c-73.76-16.23-118.58-60.36-135.44-133.27c-6.45,6.74-11.9,14.37-15.99,22.92c-13.31,27.87-13.26,55.85-0.13,83.74
				c2.39,5.07,2.7,9.7,0.77,15C70.47,361.89,65.88,375.8,60.86,390.43z"/>
		</g>
	</g>
	<g>
		<path class="st0" d="M216.9,189.72l-34.63-34.31c-7.24-7.17-7.24-18.8,0-25.97l0,0c7.24-7.17,18.97-7.17,26.2,0l34.63,34.31
			c7.24,7.17,7.24,18.8,0,25.97l0,0C235.86,196.89,224.13,196.89,216.9,189.72z"/>
		<path class="st0" d="M303.93,276.43l-34.63-34.31c-7.24-7.17-7.24-18.8,0-25.97v0c7.24-7.17,18.97-7.17,26.2,0l34.63,34.31
			c7.24,7.17,7.24,18.8,0,25.97l0,0C322.9,283.6,311.17,283.6,303.93,276.43z"/>
		<path class="st0" d="M182.27,250.46l34.63-34.31c7.24-7.17,18.97-7.17,26.2,0l0,0c7.24,7.17,7.24,18.8,0,25.97l-34.63,34.31
			c-7.24,7.17-18.97,7.17-26.2,0l0,0C175.04,269.26,175.04,257.63,182.27,250.46z"/>
		<path class="st0" d="M270.24,163.76l34.63-34.31c7.24-7.17,18.97-7.17,26.2,0l0,0c7.24,7.17,7.24,18.8,0,25.97l-34.63,34.31
			c-7.24,7.17-18.97,7.17-26.2,0l0,0C263,182.55,263,170.93,270.24,163.76z"/>
	</g>
</g>
</svg>
