<?xml version="1.0" encoding="utf-8"?>
<!-- Generator: Adobe Illustrator 25.4.1, SVG Export Plug-In . SVG Version: 6.00 Build 0)  -->
<svg version="1.1" id="Layer_1" xmlns="http://www.w3.org/2000/svg" xmlns:xlink="http://www.w3.org/1999/xlink" x="0px" y="0px"
	 viewBox="0 0 460 453" style="enable-background:new 0 0 460 453;" xml:space="preserve">
<style type="text/css">
	.st0{fill:#404040;}
</style>
<g id="AQbwZY.tif">
	<g>
		<path class="st0" d="M168.67,0c9.66,1.77,19.46,2.95,28.94,5.4c60.32,15.58,106.94,68.16,115.02,129.44
			c0.39,2.97,1.45,4.23,4.52,4.65c72.06,9.91,128.27,69.29,134.28,141.72c6.67,80.35-46.86,151.79-125.86,167.98
			c-85.44,17.51-170.3-40.34-185.26-126.3c-1.64-9.42-1.64-9.42-11.12-11.07C63.12,300.31,10.71,245.79,1.59,179.11
			c-0.48-3.48-1.05-6.95-1.59-10.42c0-7.65,0-15.31,0-22.96c0.27-1.28,0.53-2.55,0.8-3.83c2.57-11.89,4.46-23.99,7.94-35.61
			c2.63-8.79,7.04-17.09,11.11-25.38c2.4-4.88,7.65-6.21,12.01-3.84c4.31,2.34,5.7,7.33,3.39,12.24c-0.5,1.06-1.12,2.07-1.66,3.11
			c-15.22,29.62-19.87,60.85-12.92,93.38c16.44,76.87,91.47,125.44,167.75,107.1c56.2-13.51,92.37-49.87,104.74-106.37
			c12.02-54.92-5.27-101.83-48.49-137.65C200.23,12.06,140.29,7.64,89.17,35.36c-6.05,3.28-11.15,2.41-13.84-2.34
			c-2.73-4.82-0.86-9.63,5.14-13c11.72-6.58,24.01-11.84,37.13-14.81c9.29-2.1,18.73-3.5,28.1-5.21C153.36,0,161.01,0,168.67,0z
			 M312.35,184.71c55.55,8.28,97.39,59.75,93.66,117.08c-3.44,52.82-42.22,95.07-94.91,103.25c-24.94,3.88-48.72-0.58-70.63-13.15
			c-30.93-17.74-49.12-44.69-55.61-79.51c-9.4,0.84-18.44,1.65-27.48,2.45c5.03,52.95,53.86,116.27,131.94,119.51
			c78.58,3.26,142.43-58.27,145.01-134.25c2.72-80.06-59.67-136.28-119.51-142.86C314,166.28,313.19,175.32,312.35,184.71z
			 M202.51,308.48c5.15,42.67,44.55,82.63,97.71,80c49.72-2.46,89.11-44.71,88.25-95.1c-0.91-52.96-43.41-87.21-80.36-90.73
			c-3.63,8.93-7.24,17.84-10.97,27.02c9.43,1.58,13.65,8.15,15.96,16.7c1.45,5.38,3.54,10.59,5.02,15.97
			c0.82,2.98,2.32,3.83,5.31,3.73c6.76-0.23,13.56-0.46,20.29,0.08c3.95,0.32,8.35,1.25,11.58,3.38c10,6.57,9.99,20.68,0.24,28.2
			c-6.73,5.2-13.72,10.07-20.73,15.19c0.98,3.1,1.9,6.02,2.84,8.94c1.71,5.31,3.57,10.58,5.1,15.94c2.1,7.38-0.33,14.42-6.23,18.82
			c-6.14,4.59-13.62,4.97-20.17,0.52c-7.16-4.86-14.08-10.08-21-15.06c-0.5,0.17-0.82,0.2-1.04,0.37
			c-6.2,4.48-12.37,8.99-18.58,13.45c-7.76,5.58-15.25,5.9-22.02,1.01c-6.71-4.84-8.75-12.15-5.86-21.23
			c2.4-7.54,4.85-15.05,7.33-22.73c-7.49-5.49-14.8-10.91-22.21-16.19c-0.72-0.51-2.2-0.52-3.07-0.15
			C220.85,300.45,211.87,304.4,202.51,308.48z M246.95,285.14c6.39,4.61,11.61,8.38,16.83,12.15c12.22,8.83,12.21,8.82,7.58,23.02
			c-2.26,6.93-4.45,13.88-7.08,22.06c8.57-6.24,16.02-11.69,23.5-17.11c5.91-4.29,8.65-4.27,14.67,0.08
			c6.19,4.49,12.36,9.01,18.55,13.51c1.2,0.87,2.44,1.68,3.99,2.75c0-1.06,0.07-1.37-0.01-1.63c-2.82-8.66-5.67-17.31-8.47-25.97
			c-1.93-5.99-1.01-8.88,4.02-12.56c6.17-4.52,12.37-8.99,18.56-13.49c1.56-1.13,3.1-2.29,4.66-3.44
			c-9.88-0.84-19.27-0.82-28.66-0.84c-6.8-0.01-9.08-1.69-11.2-8.23c-2.45-7.54-4.85-15.1-7.3-22.65c-0.42-1.29-0.97-2.53-1.86-4.8
			c-3.17,9.88-5.93,18.55-8.72,27.21c-2.2,6.83-4.4,8.45-11.47,8.47c-7.06,0.02-14.13-0.07-21.19,0.06
			C251.62,283.76,249.91,284.46,246.95,285.14z"/>
		<path class="st0" d="M268.45,157.25c-0.02,61.26-49.95,111.2-111.21,111.24c-61.42,0.04-111.45-50.1-111.32-111.56
			c0.13-61.25,50.15-111.08,111.42-111C218.6,46.01,268.47,95.97,268.45,157.25z M156.97,250.83c51.49,0.1,93.63-41.76,93.82-93.19
			c0.19-51.71-41.76-93.95-93.4-94.04c-51.51-0.09-93.63,41.75-93.81,93.18C63.41,208.49,105.35,250.73,156.97,250.83z"/>
		<path class="st0" d="M60.24,53.07c-0.02,4.88-3.8,8.71-8.63,8.75c-4.9,0.04-9.03-4.17-8.86-9.06c0.16-4.72,4.26-8.64,8.95-8.55
			C56.53,44.3,60.27,48.19,60.24,53.07z"/>
	</g>
	<g>
		<path class="st0" d="M130.21,145.12l-27.59-27.34c-5.77-5.71-5.77-14.98,0-20.69l0,0c5.77-5.71,15.12-5.71,20.88,0l27.59,27.34
			c5.77,5.71,5.77,14.98,0,20.69l0,0C145.32,150.83,135.97,150.83,130.21,145.12z"/>
		<path class="st0" d="M199.57,214.21l-27.59-27.34c-5.77-5.71-5.77-14.98,0-20.69l0,0c5.77-5.71,15.12-5.71,20.88,0l27.59,27.34
			c5.77,5.71,5.77,14.98,0,20.69l0,0C214.68,219.93,205.33,219.93,199.57,214.21z"/>
		<path class="st0" d="M102.61,193.52l27.59-27.34c5.77-5.71,15.12-5.71,20.88,0l0,0c5.77,5.71,5.77,14.98,0,20.69l-27.59,27.34
			c-5.77,5.71-15.12,5.71-20.88,0l0,0C96.85,208.5,96.85,199.24,102.61,193.52z"/>
		<path class="st0" d="M172.72,124.43l27.59-27.34c5.77-5.71,15.12-5.71,20.88,0l0,0c5.77,5.71,5.77,14.98,0,20.69l-27.59,27.34
			c-5.77,5.71-15.12,5.71-20.88,0l0,0C166.95,139.4,166.95,130.14,172.72,124.43z"/>
	</g>
</g>
</svg>
