<?xml version="1.0" encoding="utf-8"?>
<!-- Generator: Adobe Illustrator 25.4.1, SVG Export Plug-In . SVG Version: 6.00 Build 0)  -->
<svg version="1.1" id="Layer_1" xmlns="http://www.w3.org/2000/svg" xmlns:xlink="http://www.w3.org/1999/xlink" x="0px" y="0px"
	 viewBox="0 0 460 456" style="enable-background:new 0 0 460 456;" xml:space="preserve">
<style type="text/css">
	.st0{fill:#404040;}
</style>
<g id="X5I6bw.tif">
	<g>
		<path class="st0" d="M327.28,455.85c-8.76-1.81-17.73-2.93-26.24-5.55c-51.93-15.97-86.73-63.02-86.02-116.92
			c0.15-11.28,3.13-22.52,4.66-33.79c0.2-1.46,0.05-3.95-0.79-4.4c-10.23-5.52-20.61-10.74-30.78-15.95
			c-4.62,5.73-8.55,11.58-13.43,16.51c-28.99,29.31-63.92,39.37-103.45,27.24c-39.33-12.07-62.79-39.8-69.82-79.96
			c-9.55-54.61,30.92-107.35,86.63-114.15c23.76-2.9,45.85,1.75,66.14,14.35c2.43,1.51,3.94,1.47,6.18-0.36
			c10.04-8.18,20.26-16.15,30.38-24.16c-27.32-46.38-2.71-92.57,28.6-109.3c34.47-18.42,77.59-9.12,100.65,22.39
			c23.05,31.5,18.71,75.23-9.79,101.71c-28.34,26.32-74.96,29.42-107.89-1.09c-10.05,7.95-20.17,15.95-30.47,24.09
			c29.05,30.96,36.71,66.44,23.88,106.53c10.64,5.47,21.1,10.84,31.83,16.36c0.72-1.13,1.35-2.07,1.93-3.04
			c26.49-44.5,65.85-67.03,117.85-63.13c48.51,3.64,82.9,29.54,103.19,73.45c2.85,6.16,1.05,11.3-4.21,13.4
			c-5.07,2.02-9.49-0.3-12.26-6.46c-19.01-42.19-58.48-65.87-104.98-62.97c-47.74,2.97-89.65,42.38-95.35,89.42
			c-3.54,29.28,3.46,55.59,21.82,78.86c1.74,2.21,3.7,4.24,6.11,6.99c6.76-16.79,18.35-27.92,35.81-33.28
			c-12.89-13.74-18.88-29.62-16.35-48.18c1.99-14.63,9-26.59,20.42-35.95c22.2-18.19,54.3-16.82,75.43,2.99
			c19.77,18.54,26.42,53.57,0.86,81.14c17.02,5.42,28.83,16.28,35.41,33.21c8.23-8.25,14.34-17.45,19.17-27.54
			c1.22-2.54,2.26-5.17,3.34-7.76c2.55-6.11,7.08-8.5,12.22-6.44c5.14,2.06,6.8,6.81,4.41,13.05c-9.01,23.59-24.05,42.57-44.87,57
			c-17,11.79-35.86,18.82-56.54,20.95c-1.01,0.1-1.99,0.51-2.99,0.77C341.06,455.85,334.17,455.85,327.28,455.85z M183.71,227.79
			c-0.06-45.4-37.01-81.95-82.83-81.93c-45.7,0.02-82.79,36.8-82.75,82.08c0.03,45.25,37.18,81.96,82.91,81.94
			C146.79,309.86,183.78,273.13,183.71,227.79z M316.82,76.99c-0.11-32.86-26.9-59.32-60.04-59.28
			c-33.18,0.03-59.97,26.9-59.81,59.99c0.15,32.43,27.25,58.95,60.08,58.81C290.25,136.36,316.93,109.8,316.82,76.99z M337.65,293.6
			c-21.5-0.06-39.02,17.05-39.14,38.2c-0.12,21.48,17.24,38.91,38.84,39.02c21.49,0.11,39.26-17.44,39.22-38.73
			C376.53,310.92,359.07,293.66,337.65,293.6z M337.49,388.89c0,0.02,0,0.05,0,0.07c-10.02,0-20.07-0.45-30.05,0.11
			c-14.14,0.79-26.92,12.63-29.62,26.36c-0.53,2.68,0.07,4.24,2.45,5.82c33.55,22.29,80.71,22.3,114.47,0
			c2.39-1.58,3.05-3.17,2.48-5.86c-3.05-14.31-15.79-25.7-30.56-26.42C356.95,388.51,347.21,388.89,337.49,388.89z"/>
		<path class="st0" d="M460.28,334.73c-0.59,0.82-1.15,1.67-1.77,2.47c-3.46,4.43-9.29,5.01-13.29,1.32
			c-3.84-3.53-3.84-9.46,0-12.97c3.98-3.63,9.96-3.03,13.32,1.35c0.62,0.8,1.17,1.65,1.75,2.48
			C460.28,331.17,460.28,332.95,460.28,334.73z"/>
		<path class="st0" d="M101.2,171.39c31.34,0.18,56.87,25.53,56.87,56.48c0,31.12-25.92,56.66-57.32,56.48
			c-31.61-0.18-56.92-25.58-56.73-56.93C44.21,196.36,69.88,171.21,101.2,171.39z M101,266.5c21.61-0.05,39.19-17.5,39.05-38.77
			c-0.14-21.39-17.77-38.64-39.33-38.48c-21.52,0.16-38.67,17.23-38.71,38.53C61.97,249.25,79.39,266.55,101,266.5z"/>
	</g>
	<g>
		<path class="st0" d="M241.32,72.94l-15.81-15.67c-3.3-3.27-3.3-8.58,0-11.86l0,0c3.3-3.27,8.66-3.27,11.96,0l15.81,15.67
			c3.3,3.27,3.3,8.58,0,11.86v0C249.98,76.22,244.63,76.22,241.32,72.94z"/>
		<path class="st0" d="M281.06,112.53l-15.81-15.67c-3.3-3.27-3.3-8.58,0-11.86l0,0c3.3-3.27,8.66-3.27,11.96,0l15.81,15.67
			c3.3,3.27,3.3,8.58,0,11.86v0C289.72,115.81,284.37,115.81,281.06,112.53z"/>
		<path class="st0" d="M225.51,100.68l15.81-15.67c3.3-3.27,8.66-3.27,11.96,0v0c3.3,3.27,3.3,8.58,0,11.86l-15.81,15.67
			c-3.3,3.27-8.66,3.27-11.96,0l0,0C222.21,109.26,222.21,103.95,225.51,100.68z"/>
		<path class="st0" d="M265.68,61.09l15.81-15.67c3.3-3.27,8.66-3.27,11.96,0v0c3.3,3.27,3.3,8.58,0,11.86l-15.81,15.67
			c-3.3,3.27-8.66,3.27-11.96,0l0,0C262.38,69.67,262.38,64.36,265.68,61.09z"/>
	</g>
</g>
</svg>
