<svg id="Layer_1" data-name="Layer 1" xmlns="http://www.w3.org/2000/svg" viewBox="0 0 342.8 451.7"><defs><style>.cls-1{fill:#fff;}</style></defs><path class="cls-1" d="M354,207c-.5,33.6-9.9,62.2-41.3,78.5-22.6,11.6-46.6,10.5-70.3,3.4-53.1-15.9-91.2-51.1-120.7-96.5-18.2-28-30.3-58.5-32.2-92.3s5.4-63.6,35.7-82.9c22.3-14.1,47-13.8,71.5-7.5,48.7,12.8,85.2,43.2,114.6,82.7C336.6,126.5,353,164.2,354,207ZM220.1,192.5c-.2-20.6-21.4-46-41.7-49.8-11.9-2.3-21,5.5-21.1,18-.2,20,20.7,45.6,40.5,49.8C211.5,213.4,220.1,206.4,220.1,192.5Zm-14,32.3C167,215.7,146.6,193,146.5,152c-7.8,15.7-2.9,39.8,9.6,54.1C170.1,222.2,189.7,230.1,206.1,224.8Z" transform="translate(-11.2 -5.5)"/><path class="cls-1" d="M59.1,346.5c-31.9-.2-49.8-30-38.1-59.2,13.1-32.5,24.8-65.5,37-98.3,1.7-4.6,2.2-9.7,3.8-14.3.7-1.9,3-3.3,4.6-4.9,1.3,1.5,3.2,2.8,3.8,4.5,19.9,56.3,57.5,96.6,110.4,123.3,2.1,1.1,3.5,3.6,5.2,5.5-2.1,1.4-4.1,3.2-6.4,4L76.5,342.2c-3.2,1.1-6.3,2.6-9.5,3.4A57.6,57.6,0,0,1,59.1,346.5ZM84.3,228.1c-3.5-6.2-6.5-12.1-10.2-17.6-.5-.9-5.8-.3-6.4.9a383.4,383.4,0,0,0-16.2,35.9c-1,2.6,2.4,6.9,3.8,10.5,2.7-1.3,6-2,8.1-4A226.3,226.3,0,0,0,79,237C81,234.6,82.3,231.5,84.3,228.1ZM44.5,254,28.3,290.9l2.1,1.3c5.6-6.7,10.8-13.7,16.8-20S53,260.8,44.5,254Z" transform="translate(-11.2 -5.5)"/><path class="cls-1" d="M60.7,354.6c16.5-6.5,32.6-12.5,48.4-19.1,7.5-3.1,11.9-2,15,6,8.6,21.8,17.7,43.3,26.6,64.9,10,24.4-3.2,42.5-27.1,50.1-6.5,2-13.3,0-16.7-6.7-15.6-31-30.9-62.2-46.3-93.4A3.7,3.7,0,0,1,60.7,354.6Z" transform="translate(-11.2 -5.5)"/><path class="cls-1" d="M84.6,62.1c-12.2,58,3.9,108.6,39.9,153.7s77.3,76.4,135.4,83.8c-13.5,4.3-35.7,4.1-56.5-3.6C134.3,270.6,88.5,223,71,150.7,64.3,122.9,71,85.5,84.6,62.1Z" transform="translate(-11.2 -5.5)"/><path class="cls-1" d="M152.7,442.6c9.6-13.1,9.2-26.4,2.9-40.7-9-20.3-17-40.9-25.4-61.4-1.3-3.3-2.5-6.8-3.6-10,6.3-5.2,9.9-4.8,12.9,2.6,8.9,22.6,18.6,44.9,27.5,67.4C173.9,418,168.7,433.1,152.7,442.6Z" transform="translate(-11.2 -5.5)"/><path class="cls-1" d="M14.6,325.7l20.8,23c-4.8,1-9.8,3.8-13,2.4s-9.2-6.5-10.9-11S13.2,331.3,14.6,325.7Z" transform="translate(-11.2 -5.5)"/></svg>