<svg id="Layer_1" data-name="Layer 1" xmlns="http://www.w3.org/2000/svg" viewBox="0 0 114.3 114.3"><defs><style>.cls-1{fill:#dedede;}</style></defs><path class="cls-1" d="M159.7,53.4a40.5,40.5,0,1,1-44.6-35.8A40.5,40.5,0,0,1,159.7,53.4ZM123.1,91.6A34,34,0,1,0,85.6,61.3,34,34,0,0,0,123.1,91.6Z" transform="translate(-62.3 -0.7)"/><path class="cls-1" d="M176.3,51.6A57.1,57.1,0,1,1,113.3,1,57.4,57.4,0,0,1,176.3,51.6Zm-51.5,56.3A50.4,50.4,0,1,0,69.4,63,50.4,50.4,0,0,0,124.8,107.9Z" transform="translate(-62.3 -0.7)"/><path class="cls-1" d="M109.3,54.5,98.2,45.7a5.2,5.2,0,0,1-.8-7.4h0a5.4,5.4,0,0,1,7.5-.9L116,46.2a5.4,5.4,0,0,1,.8,7.5h0A5.4,5.4,0,0,1,109.3,54.5Z" transform="translate(-62.3 -0.7)"/><path class="cls-1" d="M137,76.7l-11-8.8a5.2,5.2,0,0,1-.8-7.4h0a5.3,5.3,0,0,1,7.5-.8l11,8.7a5.4,5.4,0,0,1,.9,7.5h0A5.4,5.4,0,0,1,137,76.7Z" transform="translate(-62.3 -0.7)"/><path class="cls-1" d="M101.2,73.1l8.9-11a5.3,5.3,0,0,1,7.5-.8h0a5.3,5.3,0,0,1,.8,7.5l-8.9,10.9a5.3,5.3,0,0,1-7.5.8h0A5.2,5.2,0,0,1,101.2,73.1Z" transform="translate(-62.3 -0.7)"/><path class="cls-1" d="M123.8,45.4l8.9-11a5.3,5.3,0,0,1,7.5-.8h0A5.2,5.2,0,0,1,141,41l-8.8,11a5.4,5.4,0,0,1-7.6.8h0A5.2,5.2,0,0,1,123.8,45.4Z" transform="translate(-62.3 -0.7)"/></svg>