<?xml version="1.0" encoding="utf-8"?>
<!-- Generator: Adobe Illustrator 25.4.1, SVG Export Plug-In . SVG Version: 6.00 Build 0)  -->
<svg version="1.1" id="Layer_1" xmlns="http://www.w3.org/2000/svg" xmlns:xlink="http://www.w3.org/1999/xlink" x="0px" y="0px"
	 viewBox="0 0 239 116" style="enable-background:new 0 0 239 116;" xml:space="preserve">
<style type="text/css">
	.st0{fill:#dedede;}
</style>
<path class="st0" d="M58,0C25.97,0,0,25.97,0,58c0,32.03,25.97,58,58,58s58-25.97,58-58C116,25.97,90.03,0,58,0z M58,90.78
	c-18.11,0-32.78-14.68-32.78-32.78c0-18.11,14.68-32.78,32.78-32.78S90.78,39.89,90.78,58C90.78,76.11,76.11,90.78,58,90.78z"/>
<g>
	<path class="st0" d="M151.87,48.3l-25.23-25.23c-5.27-5.27-5.27-13.82,0-19.09l0,0c5.27-5.27,13.82-5.27,19.09,0l25.23,25.23
		c5.27,5.27,5.27,13.82,0,19.09l0,0C165.69,53.57,157.14,53.57,151.87,48.3z"/>
	<path class="st0" d="M215.27,112.05l-25.23-25.23c-5.27-5.27-5.27-13.82,0-19.09l0,0c5.27-5.27,13.82-5.27,19.09,0l25.23,25.23
		c5.27,5.27,5.27,13.82,0,19.09l0,0C229.09,117.32,220.55,117.32,215.27,112.05z"/>
	<path class="st0" d="M126.64,92.96l25.23-25.23c5.27-5.27,13.82-5.27,19.09,0l0,0c5.27,5.27,5.27,13.82,0,19.09l-25.23,25.23
		c-5.27,5.27-13.82,5.27-19.09,0l0,0C121.37,106.77,121.37,98.23,126.64,92.96z"/>
	<path class="st0" d="M190.73,29.21l25.23-25.23c5.27-5.27,13.82-5.27,19.09,0l0,0c5.27,5.27,5.27,13.82,0,19.09L209.82,48.3
		c-5.27,5.27-13.82,5.27-19.09,0l0,0C185.46,43.03,185.46,34.48,190.73,29.21z"/>
</g>
</svg>
