<?xml version="1.0" encoding="utf-8"?>
<!-- Generator: Adobe Illustrator 26.1.0, SVG Export Plug-In . SVG Version: 6.00 Build 0)  -->
<svg version="1.1" id="Layer_1" xmlns="http://www.w3.org/2000/svg" xmlns:xlink="http://www.w3.org/1999/xlink" x="0px" y="0px"
	 viewBox="0 0 116.3 116" style="enable-background:new 0 0 116.3 116;" xml:space="preserve">
<style type="text/css">
	.st0{fill:#DEDEDE;}
</style>
<g>
	<path class="st0" d="M29.2,48.3L4,23.1C-1.3,17.8-1.3,9.2,4,4l0,0C9.2-1.3,17.8-1.3,23,4l25.2,25.2c5.3,5.3,5.3,13.8,0,19.1l0,0
		C43,53.6,34.5,53.6,29.2,48.3z"/>
	<path class="st0" d="M92.6,112.1L67.4,86.8c-5.3-5.3-5.3-13.8,0-19.1l0,0c5.3-5.3,13.8-5.3,19.1,0L111.7,93
		c5.3,5.3,5.3,13.8,0,19.1l0,0C106.4,117.3,97.9,117.3,92.6,112.1z"/>
	<path class="st0" d="M4,93l25.2-25.2c5.3-5.3,13.8-5.3,19.1,0l0,0c5.3,5.3,5.3,13.8,0,19.1L23,112c-5.3,5.3-13.8,5.3-19.1,0l0,0
		C-1.3,106.8-1.3,98.2,4,93z"/>
	<path class="st0" d="M68,29.2L93.3,4c5.3-5.3,13.8-5.3,19.1,0l0,0c5.3,5.3,5.3,13.8,0,19.1L87.1,48.3c-5.3,5.3-13.8,5.3-19.1,0l0,0
		C62.8,43,62.8,34.5,68,29.2z"/>
</g>
</svg>
